STARTFONT 2.1
COMMENT
COMMENT Converted from OpenType font "Kanit-Black.ttf" by "otf2bdf 3.0".
COMMENT
FONT -FreeType-Kanit Black-Medium-R-Normal--33-240-100-100-P-195-ISO10646-1
SIZE 24 100 100
FONTBOUNDINGBOX 30 29 0 -7
STARTPROPERTIES 19
FOUNDRY "FreeType"
FAMILY_NAME "Kanit Black"
WEIGHT_NAME "Medium"
SLANT "R"
SETWIDTH_NAME "Normal"
ADD_STYLE_NAME ""
PIXEL_SIZE 33
POINT_SIZE 240
RESOLUTION_X 100
RESOLUTION_Y 100
SPACING "P"
AVERAGE_WIDTH 195
CHARSET_REGISTRY "ISO10646"
CHARSET_ENCODING "1"
FONT_ASCENT 36
FONT_DESCENT 13
COPYRIGHT "Copyright 2020 The Kanit Project Authors (https://github.com/cadsondemak/kanit)"
_OTF_FONTFILE "Kanit-Black.ttf"
_OTF_PSNAME "Kanit-Black"
ENDPROPERTIES
CHARS 37
STARTCHAR 0030
ENCODING 48
SWIDTH 660 0
DWIDTH 22 0
BBX 21 21 1 0
BITMAP
03FC00
1FFF80
3FFFC0
7FFFE0
7FFFF0
FFFFF0
FFFFF0
FF8FF8
FF0FF8
FF07F8
FF07F8
FF07F8
FF0FF8
FF8FF8
FFFFF0
FFFFF0
7FFFF0
7FFFE0
3FFFC0
1FFF80
03FC00
ENDCHAR
STARTCHAR 0031
ENCODING 49
SWIDTH 390 0
DWIDTH 13 0
BBX 11 22 1 0
BITMAP
0020
1FE0
FFE0
FFE0
FFE0
FFE0
FFE0
FFE0
9FE0
1FE0
1FE0
1FE0
1FE0
1FE0
1FE0
1FE0
1FE0
1FE0
1FE0
1FE0
1FE0
1FE0
ENDCHAR
STARTCHAR 0032
ENCODING 50
SWIDTH 540 0
DWIDTH 18 0
BBX 16 21 1 0
BITMAP
1FE0
FFF8
FFFC
FFFE
FFFF
FFFF
FFFF
C1FF
00FF
00FF
01FE
03FC
0FF8
1FF0
3FE0
7FFF
FFFF
FFFF
FFFF
FFFF
FFFF
ENDCHAR
STARTCHAR 0033
ENCODING 51
SWIDTH 540 0
DWIDTH 18 0
BBX 17 21 1 0
BITMAP
1FE000
FFFC00
FFFE00
FFFF00
FFFF00
FFFF00
00FF00
1FFF00
1FFE00
1FFE00
1FFF00
1FFF00
00FF80
00FF80
80FF80
FFFF80
FFFF00
FFFF00
FFFE00
FFFC00
3FE000
ENDCHAR
STARTCHAR 0034
ENCODING 52
SWIDTH 540 0
DWIDTH 18 0
BBX 19 21 0 0
BITMAP
003F80
007F80
00FF80
01FF80
03FF80
07FF80
07FF80
0FFF80
1FFF80
3FBF80
7F3F80
7FFFE0
FFFFE0
FFFFE0
FFFFE0
FFFFE0
FFFFE0
007F80
007F80
007F80
007F80
ENDCHAR
STARTCHAR 0035
ENCODING 53
SWIDTH 540 0
DWIDTH 18 0
BBX 16 21 1 0
BITMAP
FFFE
FFFE
FFFE
FFFE
FFFE
FFFC
FFC0
FFF8
FFFE
FFFE
FFFF
FFFF
00FF
00FF
80FF
FFFF
FFFF
FFFE
FFFC
FFF8
3FE0
ENDCHAR
STARTCHAR 0036
ENCODING 54
SWIDTH 600 0
DWIDTH 20 0
BBX 18 21 1 0
BITMAP
03FE00
0FFF00
3FFF00
7FFF00
7FFF00
FFFF00
FEFC00
FFFF00
FFFF80
FFFFC0
FFFFC0
FFFFC0
FE1FC0
FE1FC0
FE1FC0
FFFFC0
FFFFC0
7FFF80
3FFF80
1FFE00
07F800
ENDCHAR
STARTCHAR 0037
ENCODING 55
SWIDTH 510 0
DWIDTH 17 0
BBX 16 21 0 0
BITMAP
FFFF
FFFF
FFFF
FFFF
FFFF
FFFF
01FE
01FE
03FE
03FC
07FC
07F8
07F8
0FF8
0FF0
1FF0
1FE0
3FE0
3FC0
3FC0
7FC0
ENDCHAR
STARTCHAR 0038
ENCODING 56
SWIDTH 630 0
DWIDTH 21 0
BBX 19 21 1 0
BITMAP
07FC00
1FFF00
7FFF80
7FFFC0
FFFFC0
FFFFE0
FF1FE0
FF1FE0
FF1FC0
7FFFC0
7FFF80
FFFFC0
FF7FE0
FE0FE0
FE0FE0
FFFFE0
FFFFE0
FFFFE0
7FFFC0
3FFF80
0FFC00
ENDCHAR
STARTCHAR 0039
ENCODING 57
SWIDTH 600 0
DWIDTH 20 0
BBX 18 21 1 0
BITMAP
07F800
3FFE00
7FFF00
FFFF80
FFFFC0
FFFFC0
FE1FC0
FE1FC0
FFFFC0
FFFFC0
FFFFC0
7FFFC0
3FFFC0
1FDFC0
403FC0
3FFFC0
3FFF80
3FFF80
3FFF00
3FFC00
1FF000
ENDCHAR
STARTCHAR 003A
ENCODING 58
SWIDTH 210 0
DWIDTH 7 0
BBX 6 16 1 0
BITMAP
FC
FC
FC
FC
FC
FC
00
00
00
00
FC
FC
FC
FC
FC
FC
ENDCHAR
STARTCHAR 0041
ENCODING 65
SWIDTH 780 0
DWIDTH 26 0
BBX 24 21 1 0
BITMAP
01FF00
01FF80
01FF80
03FF80
03FFC0
03FFC0
07FFC0
07FFE0
0FEFE0
0FE7F0
0FE7F0
1FFFF0
1FFFF8
3FFFF8
3FFFFC
3FFFFC
7FFFFC
7F81FE
FF81FE
FF01FF
FF00FF
ENDCHAR
STARTCHAR 0042
ENCODING 66
SWIDTH 660 0
DWIDTH 22 0
BBX 20 21 1 0
BITMAP
FFFF00
FFFFC0
FFFFE0
FFFFE0
FFFFE0
FFFFF0
FF0FF0
FF0FE0
FFFFE0
FFFFE0
FFFFC0
FFFFE0
FFFFF0
FF0FF0
FF0FF0
FFFFF0
FFFFF0
FFFFF0
FFFFE0
FFFFC0
FFFF00
ENDCHAR
STARTCHAR 0043
ENCODING 67
SWIDTH 600 0
DWIDTH 20 0
BBX 19 21 1 0
BITMAP
01FF00
0FFFE0
1FFFE0
3FFFE0
7FFFE0
FFFFE0
FFFFE0
FFC060
FF0000
FF0000
FF0000
FF0000
FF0000
FFC060
FFFFE0
FFFFE0
7FFFE0
3FFFE0
1FFFE0
0FFFE0
00FF80
ENDCHAR
STARTCHAR 0044
ENCODING 68
SWIDTH 690 0
DWIDTH 23 0
BBX 21 21 1 0
BITMAP
FFFC00
FFFF80
FFFFC0
FFFFE0
FFFFF0
FFFFF0
FFFFF8
FF0FF8
FF07F8
FF07F8
FF07F8
FF07F8
FF07F8
FF07F8
FF0FF8
FFFFF0
FFFFF0
FFFFE0
FFFFC0
FFFF80
FFFC00
ENDCHAR
STARTCHAR 0045
ENCODING 69
SWIDTH 540 0
DWIDTH 18 0
BBX 17 21 1 0
BITMAP
FFFF80
FFFF80
FFFF80
FFFF80
FFFF80
FFFF80
FF0000
FFFF00
FFFF00
FFFF00
FFFF00
FFFF00
FFFF00
FF0000
FF0000
FFFF80
FFFF80
FFFF80
FFFF80
FFFF80
FFFF80
ENDCHAR
STARTCHAR 0046
ENCODING 70
SWIDTH 540 0
DWIDTH 18 0
BBX 17 21 1 0
BITMAP
FFFF80
FFFF80
FFFF80
FFFF80
FFFF80
FFFF80
FF0000
FFFF00
FFFF00
FFFF00
FFFF00
FFFF00
FFFF00
FF0000
FF0000
FF0000
FF0000
FF0000
FF0000
FF0000
FF0000
ENDCHAR
STARTCHAR 0047
ENCODING 71
SWIDTH 660 0
DWIDTH 22 0
BBX 20 21 1 0
BITMAP
00FF80
07FFE0
1FFFE0
3FFFE0
7FFFE0
7FFFE0
FFFFE0
FFC000
FF3FF0
FF3FF0
FF3FF0
FF3FF0
FF3FF0
FF83F0
FFFFF0
FFFFF0
7FFFF0
3FFFF0
1FFFF0
0FFFE0
01FF00
ENDCHAR
STARTCHAR 0048
ENCODING 72
SWIDTH 720 0
DWIDTH 24 0
BBX 21 21 1 0
BITMAP
FF07F8
FF07F8
FF07F8
FF07F8
FF07F8
FF07F8
FF07F8
FFFFF8
FFFFF8
FFFFF8
FFFFF8
FFFFF8
FFFFF8
FFFFF8
FF07F8
FF07F8
FF07F8
FF07F8
FF07F8
FF07F8
FF07F8
ENDCHAR
STARTCHAR 0049
ENCODING 73
SWIDTH 300 0
DWIDTH 10 0
BBX 8 21 1 0
BITMAP
FF
FF
FF
FF
FF
FF
FF
FF
FF
FF
FF
FF
FF
FF
FF
FF
FF
FF
FF
FF
FF
ENDCHAR
STARTCHAR 004A
ENCODING 74
SWIDTH 450 0
DWIDTH 15 0
BBX 14 21 0 0
BITMAP
03FC
03FC
03FC
03FC
03FC
03FC
03FC
03FC
03FC
03FC
03FC
03FC
03FC
83FC
FFFC
FFFC
FFFC
FFFC
FFF8
FFF0
7F80
ENDCHAR
STARTCHAR 004B
ENCODING 75
SWIDTH 690 0
DWIDTH 23 0
BBX 22 21 1 0
BITMAP
FF0FFC
FF0FF8
FF1FF0
FF3FE0
FF7FC0
FFFF80
FFFF00
FFFF00
FFFE00
FFFE00
FFFF00
FFFF00
FFFF80
FFFFC0
FFBFC0
FF1FE0
FF1FF0
FF0FF0
FF07F8
FF07FC
FF03FC
ENDCHAR
STARTCHAR 004C
ENCODING 76
SWIDTH 540 0
DWIDTH 18 0
BBX 17 21 1 0
BITMAP
FF0000
FF0000
FF0000
FF0000
FF0000
FF0000
FF0000
FF0000
FF0000
FF0000
FF0000
FF0000
FF0000
FF0000
FF0000
FFFF80
FFFF80
FFFF80
FFFF80
FFFF80
FFFF80
ENDCHAR
STARTCHAR 004D
ENCODING 77
SWIDTH 780 0
DWIDTH 26 0
BBX 24 21 1 0
BITMAP
FF00FF
FF00FF
FF81FF
FF81FF
FFC3FF
FFC3FF
FFE7FF
FFE7FF
FFFFFF
FFFFFF
FFFFFF
FFFFFF
FFFFFF
FFFFFF
FF7FFF
FF7EFF
FF3EFF
FF00FF
FF00FF
FF00FF
FF00FF
ENDCHAR
STARTCHAR 004E
ENCODING 78
SWIDTH 690 0
DWIDTH 23 0
BBX 21 21 1 0
BITMAP
FE07F8
FF07F8
FF87F8
FF87F8
FFC7F8
FFE7F8
FFF7F8
FFF7F8
FFFFF8
FFFFF8
FFFFF8
FFFFF8
FFFFF8
FF7FF8
FF7FF8
FF3FF8
FF1FF8
FF0FF8
FF0FF8
FF07F8
FF03F8
ENDCHAR
STARTCHAR 004F
ENCODING 79
SWIDTH 720 0
DWIDTH 24 0
BBX 22 21 1 0
BITMAP
03FE00
0FFFC0
3FFFE0
7FFFF0
7FFFF8
FFFFF8
FFFFFC
FF87FC
FF03FC
FF03FC
FF03FC
FF03FC
FF03FC
FF87FC
FFFFFC
FFFFF8
7FFFF8
7FFFF0
3FFFE0
0FFFC0
03FE00
ENDCHAR
STARTCHAR 0050
ENCODING 80
SWIDTH 630 0
DWIDTH 21 0
BBX 20 21 1 0
BITMAP
FFFE00
FFFF80
FFFFC0
FFFFE0
FFFFE0
FFFFF0
FF0FF0
FF0FF0
FF0FF0
FF0FF0
FFFFF0
FFFFE0
FFFFE0
FFFFC0
FFFF80
FFFE00
FF0000
FF0000
FF0000
FF0000
FF0000
ENDCHAR
STARTCHAR 0051
ENCODING 81
SWIDTH 720 0
DWIDTH 24 0
BBX 22 28 1 -7
BITMAP
01FE00
0FFFC0
3FFFE0
3FFFF0
7FFFF8
FFFFF8
FFFFFC
FF87FC
FF03FC
FF03FC
FF03FC
FF03FC
FF03FC
FF03FC
FF07FC
FFFFFC
FFFFF8
7FFFF8
7FFFF0
3FFFE0
0FFFC0
03FF00
01FC00
00FFC0
00FFC0
00FFC0
007FC0
001FC0
ENDCHAR
STARTCHAR 0052
ENCODING 82
SWIDTH 660 0
DWIDTH 22 0
BBX 20 21 1 0
BITMAP
FFFE00
FFFF80
FFFFE0
FFFFE0
FFFFF0
FFFFF0
FF0FF0
FF0FF0
FF0FF0
FFFFF0
FFFFE0
FFFFE0
FFFFC0
FFFF80
FFFF80
FF7FC0
FF3FC0
FF3FC0
FF1FE0
FF1FE0
FF1FF0
ENDCHAR
STARTCHAR 0053
ENCODING 83
SWIDTH 540 0
DWIDTH 18 0
BBX 17 21 1 0
BITMAP
0FF800
3FFF00
7FFF00
FFFF00
FFFF00
FFFF00
FF0100
FFC000
FFF800
FFFE00
7FFF00
3FFF00
07FF80
00FF80
C07F80
FFFF80
FFFF80
FFFF00
FFFE00
FFFC00
1FF000
ENDCHAR
STARTCHAR 0054
ENCODING 84
SWIDTH 570 0
DWIDTH 19 0
BBX 19 21 0 0
BITMAP
FFFFE0
FFFFE0
FFFFE0
FFFFE0
FFFFE0
FFFFE0
07F800
07F800
07F800
07F800
07F800
07F800
07F800
07F800
07F800
07F800
07F800
07F800
07F800
07F800
07F800
ENDCHAR
STARTCHAR 0055
ENCODING 85
SWIDTH 690 0
DWIDTH 23 0
BBX 21 21 1 0
BITMAP
FF07F8
FF07F8
FF07F8
FF07F8
FF07F8
FF07F8
FF07F8
FF07F8
FF07F8
FF07F8
FF07F8
FF07F8
FF07F8
FF8FF8
FFFFF8
FFFFF8
7FFFF0
3FFFF0
1FFFE0
0FFF80
01FE00
ENDCHAR
STARTCHAR 0056
ENCODING 86
SWIDTH 780 0
DWIDTH 26 0
BBX 24 21 1 0
BITMAP
FF00FF
FF01FF
FF81FE
7F81FE
7F83FC
3FC3FC
3FC3FC
3FC7F8
1FE7F8
1FE7F0
0FEFF0
0FFFF0
0FFFE0
07FFE0
07FFE0
03FFC0
03FFC0
03FF80
01FF80
01FF80
01FF00
ENDCHAR
STARTCHAR 0057
ENCODING 87
SWIDTH 900 0
DWIDTH 30 0
BBX 29 21 1 0
BITMAP
FE3F87F8
FF3F8FF0
FF3F8FF0
FF3FCFF0
7F3FCFF0
7F3FCFE0
7FFFFFE0
7FFFFFE0
7FFFFFE0
3FFFFFC0
3FFFFFC0
3FFFFFC0
3FFFFFC0
1FFFFF80
1FFDFF80
1FF9FF80
1FF9FF80
0FF8FF00
0FF0FF00
0FF0FF00
0FF07F00
ENDCHAR
STARTCHAR 0058
ENCODING 88
SWIDTH 810 0
DWIDTH 27 0
BBX 25 21 1 0
BITMAP
FFC1FF80
7FE3FF00
3FE7FE00
3FF7FC00
1FFFF800
0FFFF800
07FFF000
07FFE000
03FFE000
01FFC000
01FF8000
01FFC000
03FFE000
07FFF000
0FFFF000
0FFFF800
1FFFFC00
3FF7FE00
7FE3FE00
7FC3FF00
FFC1FF80
ENDCHAR
STARTCHAR 0059
ENCODING 89
SWIDTH 720 0
DWIDTH 24 0
BBX 24 21 0 0
BITMAP
FF81FF
7F81FE
3FC3FC
3FC3FC
1FE7F8
1FE7F8
0FFFF0
07FFE0
07FFE0
03FFC0
03FFC0
01FF80
01FF80
00FF00
00FF00
00FF00
00FF00
00FF00
00FF00
00FF00
00FF00
ENDCHAR
STARTCHAR 005A
ENCODING 90
SWIDTH 570 0
DWIDTH 19 0
BBX 18 21 1 0
BITMAP
FFFFC0
FFFFC0
FFFFC0
FFFFC0
FFFFC0
FFFF80
FFFF80
01FF00
03FE00
07FC00
07FC00
0FF800
1FF000
3FE000
3FE000
7FFFC0
FFFFC0
FFFFC0
FFFFC0
FFFFC0
FFFFC0
ENDCHAR
ENDFONT
